<svg width="203" height="132" viewBox="0 0 203 132" fill="none" xmlns="http://www.w3.org/2000/svg">
<path d="M20.608 60H1.216V58.464C7.168 58.464 8 57.312 8 53.408V15.392C8 11.488 7.168 10.336 1.216 10.336V8.8H21.248C30.592 8.8 36.8 12.896 36.8 21.472C36.8 28.576 32.128 32.736 25.92 33.504V33.824C33.92 34.336 39.168 39.328 39.168 46.24C39.168 56.352 30.848 60 20.608 60ZM15.104 13.408V32.224C16.704 32.48 18.368 32.48 19.904 32.48C25.152 32.48 29.76 29.152 29.76 21.728C29.76 14.432 25.088 11.424 20.032 11.424C18.816 11.424 17.472 11.488 16.384 11.744C15.488 11.936 15.104 12.512 15.104 13.408ZM15.104 35.36V55.392C15.104 56.928 16.768 57.376 19.776 57.376C25.792 57.376 32 55.136 32 46.304C32 37.472 24.896 35.104 19.968 35.104C18.304 35.104 16.704 35.104 15.104 35.36ZM64.8125 46.304H66.3485C65.0045 56.608 60.6525 61.024 54.6365 61.024C47.4045 61.024 42.8605 54.176 42.8605 43.616C42.8605 33.504 47.3405 24.928 54.9565 24.928C62.4445 24.928 65.9645 31.968 65.9645 41.312H49.0685V41.44C49.0685 50.144 51.7565 56.288 57.0685 56.288C59.9485 56.288 63.2765 54.048 64.8125 46.304ZM54.9565 27.616C51.1165 27.616 49.5165 32.288 49.1325 38.688H59.8205C59.8205 32.544 58.7325 27.616 54.9565 27.616ZM88.4905 24.928C90.7305 24.928 91.9465 26.208 91.9465 28.32C91.9465 30.816 90.4745 32.416 88.8105 32.416C87.6585 32.416 87.1465 31.968 86.3145 31.072C85.4825 30.24 85.1625 29.984 84.3945 29.984C82.9225 29.984 81.1945 32.096 79.8505 36V53.024C79.8505 57.376 80.8105 58.4 86.6345 58.4V60H69.3545V58.464C73.0665 58.464 73.7065 57.504 73.7065 53.408V33.696C73.7065 29.408 73.7065 28.512 69.8665 30.112L69.2265 28.64L74.3465 26.592L78.6985 24.8L79.8505 25.76V31.904H80.0425C81.8345 28.512 84.9705 24.928 88.4905 24.928ZM115.563 46.304H117.099C115.755 56.608 111.403 61.024 105.387 61.024C98.1545 61.024 93.6105 54.176 93.6105 43.616C93.6105 33.504 98.0905 24.928 105.707 24.928C113.195 24.928 116.715 31.968 116.715 41.312H99.8185V41.44C99.8185 50.144 102.507 56.288 107.819 56.288C110.699 56.288 114.027 54.048 115.563 46.304ZM105.707 27.616C101.867 27.616 100.267 32.288 99.8825 38.688H110.571C110.571 32.544 109.483 27.616 105.707 27.616ZM147.36 52.768H148.832C148.64 57.632 147.104 61.024 142.88 61.024C139.232 61.024 137.056 58.592 137.056 52.64V51.488C135.583 57.504 132.192 61.024 127.584 61.024C123.04 61.024 120.48 57.632 120.48 53.472C120.48 45.408 129.76 41.824 137.056 38.56V34.848C137.056 29.344 135.264 27.424 132.128 27.424C129.632 27.424 127.84 28.704 127.84 30.816C127.84 32.288 128.736 33.12 128.736 34.592C128.736 36.32 127.648 37.536 125.6 37.536C123.296 37.536 122.08 35.936 122.08 33.568C122.08 28.832 126.688 24.864 133.152 24.864C139.36 24.864 143.2 28.384 143.2 35.296V54.176C143.2 57.312 143.84 58.08 144.864 58.08C146.208 58.08 147.232 56.8 147.36 52.768ZM130.08 56.16C132.64 56.16 135.392 53.792 137.056 48.224V40.672C131.872 43.36 126.624 46.432 126.624 51.744C126.624 54.432 127.84 56.16 130.08 56.16Z" fill="white"/>
<path d="M4.056 101H2.04V84.2H13.488V86.048H4.056V91.496H12.768V93.344H4.056V101ZM21.7084 101.264C17.6284 101.264 15.4684 98.36 15.4684 94.52C15.4684 90.272 18.2524 87.992 21.7084 87.992C25.7644 87.992 27.9484 90.92 27.9484 94.52C27.9484 98.912 25.2844 101.264 21.7084 101.264ZM21.7084 99.536C24.4204 99.536 25.9084 97.28 25.9084 94.52C25.9084 91.664 24.2524 89.72 21.7084 89.72C19.1644 89.72 17.5084 91.664 17.5084 94.52C17.5084 97.784 19.4044 99.536 21.7084 99.536ZM32.6179 101H30.6259V83H32.6179V101ZM38.0085 101H36.0165V83H38.0085V94.544L44.2005 88.28H46.6005L42.0165 92.912L47.2965 101H44.9685L40.6485 94.304L38.0085 96.968V101ZM58.4704 101.192C55.5904 101.192 53.7424 99.704 53.7424 97.376C53.7424 94.448 56.5744 93.896 59.1184 93.632C61.0624 93.44 62.7424 93.464 62.7664 92.432C62.7424 90.824 61.4224 89.696 59.5024 89.696C57.6544 89.696 56.2144 90.728 55.9984 92.24H54.0304C54.2704 89.744 56.5264 87.992 59.5504 87.992C62.6944 87.992 64.7104 89.864 64.7104 92.552V98.744C64.7104 99.152 64.9264 99.368 65.3584 99.368H66.0784V101H64.9504C63.5824 101 62.8624 100.376 62.8624 99.2V98.816C62.1184 100.28 60.6784 101.192 58.4704 101.192ZM58.7584 99.488C61.1344 99.488 62.7664 97.976 62.7664 95.864V94.208C62.2144 94.952 60.7984 95.096 59.2384 95.264C57.4864 95.456 55.7344 95.696 55.7344 97.328C55.7344 98.648 56.9344 99.488 58.7584 99.488ZM70.3037 101H68.3117V88.28H69.8957L70.1357 90.704C70.9517 89.072 72.4397 88.208 74.5517 88.208H74.9837V90.176H74.5517C71.8637 90.176 70.3037 91.712 70.3037 94.328V101ZM83.8888 101H82.4728C80.0008 101 78.6808 99.728 78.6808 97.376V89.96H76.3288V88.28H78.6808V83.936H80.6728V88.28H84.1048V89.96H80.6728V97.376C80.6728 98.648 81.2968 99.32 82.4728 99.32H83.8888V101ZM91.2043 101.264C88.1803 101.264 85.9483 99.68 85.7803 96.992H87.7243C87.8683 98.648 89.3803 99.56 91.3003 99.56C93.1003 99.56 93.9643 98.864 93.9643 97.592C93.9643 96.392 93.0283 96.128 91.7083 95.672L89.8603 95.048C87.9883 94.424 86.1163 93.848 86.1163 91.544C86.1163 89.384 87.7963 87.992 90.5803 87.992C93.3883 87.992 95.3323 89.504 95.6443 92.336H93.7003C93.4843 90.56 92.2363 89.696 90.5083 89.696C88.9483 89.696 88.0363 90.392 88.0363 91.496C88.0363 92.816 89.4283 93.08 90.4843 93.44L92.2123 94.016C94.5403 94.784 95.9323 95.576 95.9323 97.688C95.9323 99.92 94.3003 101.264 91.2043 101.264ZM107.877 101.192C104.997 101.192 103.149 99.704 103.149 97.376C103.149 94.448 105.981 93.896 108.525 93.632C110.469 93.44 112.149 93.464 112.173 92.432C112.149 90.824 110.829 89.696 108.909 89.696C107.061 89.696 105.621 90.728 105.405 92.24H103.437C103.677 89.744 105.933 87.992 108.957 87.992C112.101 87.992 114.117 89.864 114.117 92.552V98.744C114.117 99.152 114.333 99.368 114.765 99.368H115.485V101H114.357C112.989 101 112.269 100.376 112.269 99.2V98.816C111.525 100.28 110.085 101.192 107.877 101.192ZM108.165 99.488C110.541 99.488 112.173 97.976 112.173 95.864V94.208C111.621 94.952 110.205 95.096 108.645 95.264C106.893 95.456 105.141 95.696 105.141 97.328C105.141 98.648 106.341 99.488 108.165 99.488ZM119.71 101H117.718V88.28H119.302L119.494 90.224C120.358 88.88 122.014 87.992 123.91 87.992C126.646 87.992 128.47 89.768 128.47 92.576V101H126.478V92.648C126.478 90.872 125.326 89.744 123.406 89.744C121.126 89.744 119.734 91.328 119.71 93.272V101ZM136.729 101.264C133.321 101.264 130.945 98.528 130.945 94.568C130.945 90.68 133.297 87.992 136.705 87.992C138.625 87.992 140.233 88.832 141.145 90.176V83H143.137V101H141.553L141.337 98.552C140.497 100.208 138.817 101.264 136.729 101.264ZM137.041 99.536C139.465 99.536 141.145 97.472 141.145 94.52C141.145 91.664 139.513 89.696 137.161 89.696C134.713 89.696 133.009 91.688 133.009 94.568C133.009 97.496 134.665 99.536 137.041 99.536ZM8.544 126.264C4.32 126.264 1.416 124.08 1.2 120.912H3.312C3.552 123.072 5.592 124.44 8.544 124.44C11.112 124.44 12.456 123.384 12.456 121.632C12.456 119.928 10.968 119.28 9.36 118.776L6.456 117.864C5.112 117.432 1.728 116.712 1.728 113.424C1.728 110.712 3.96 108.936 7.44 108.936C11.28 108.936 13.656 110.88 13.92 114.456H11.832C11.664 112.08 10.008 110.76 7.344 110.76C5.232 110.76 3.744 111.72 3.744 113.328C3.744 115.176 5.664 115.56 7.104 116.016L9.816 116.856C11.952 117.528 14.52 118.368 14.52 121.536C14.52 124.488 12.264 126.264 8.544 126.264ZM21.8031 126.264C18.7071 126.264 16.9311 124.368 16.9311 121.776V113.28H18.9231V121.704C18.9231 123.528 20.1951 124.512 21.9951 124.512C24.3711 124.512 25.6671 122.928 25.6911 121.008V113.28H27.6831V126H26.0991L25.9311 124.08C25.0911 125.52 23.5551 126.264 21.8031 126.264ZM35.7043 126.264C32.6803 126.264 30.4483 124.68 30.2803 121.992H32.2243C32.3683 123.648 33.8803 124.56 35.8003 124.56C37.6003 124.56 38.4643 123.864 38.4643 122.592C38.4643 121.392 37.5283 121.128 36.2083 120.672L34.3603 120.048C32.4883 119.424 30.6163 118.848 30.6163 116.544C30.6163 114.384 32.2963 112.992 35.0803 112.992C37.8883 112.992 39.8323 114.504 40.1443 117.336H38.2003C37.9843 115.56 36.7363 114.696 35.0083 114.696C33.4483 114.696 32.5363 115.392 32.5363 116.496C32.5363 117.816 33.9283 118.08 34.9843 118.44L36.7123 119.016C39.0403 119.784 40.4323 120.576 40.4323 122.688C40.4323 124.92 38.8003 126.264 35.7043 126.264ZM49.1779 126H47.7619C45.2899 126 43.9699 124.728 43.9699 122.376V114.96H41.6179V113.28H43.9699V108.936H45.9619V113.28H49.3939V114.96H45.9619V122.376C45.9619 123.648 46.5859 124.32 47.7619 124.32H49.1779V126ZM55.8454 126.192C52.9654 126.192 51.1174 124.704 51.1174 122.376C51.1174 119.448 53.9494 118.896 56.4934 118.632C58.4374 118.44 60.1174 118.464 60.1414 117.432C60.1174 115.824 58.7974 114.696 56.8774 114.696C55.0294 114.696 53.5894 115.728 53.3734 117.24H51.4054C51.6454 114.744 53.9014 112.992 56.9254 112.992C60.0694 112.992 62.0854 114.864 62.0854 117.552V123.744C62.0854 124.152 62.3014 124.368 62.7334 124.368H63.4534V126H62.3254C60.9574 126 60.2374 125.376 60.2374 124.2V123.816C59.4934 125.28 58.0534 126.192 55.8454 126.192ZM56.1334 124.488C58.5094 124.488 60.1414 122.976 60.1414 120.864V119.208C59.5894 119.952 58.1734 120.096 56.6134 120.264C54.8614 120.456 53.1094 120.696 53.1094 122.328C53.1094 123.648 54.3094 124.488 56.1334 124.488ZM66.6947 111.144C65.8547 111.144 65.2067 110.496 65.2067 109.656C65.2067 108.816 65.8547 108.192 66.6947 108.192C67.5347 108.192 68.1587 108.816 68.1587 109.656C68.1587 110.496 67.5347 111.144 66.6947 111.144ZM67.6787 126H65.6867V113.28H67.6787V126ZM72.9287 126H70.9367V113.28H72.5207L72.7127 115.224C73.5767 113.88 75.2327 112.992 77.1287 112.992C79.8647 112.992 81.6887 114.768 81.6887 117.576V126H79.6967V117.648C79.6967 115.872 78.5447 114.744 76.6247 114.744C74.3447 114.744 72.9527 116.328 72.9287 118.272V126ZM88.9157 126.192C86.0357 126.192 84.1877 124.704 84.1877 122.376C84.1877 119.448 87.0197 118.896 89.5637 118.632C91.5077 118.44 93.1877 118.464 93.2117 117.432C93.1877 115.824 91.8677 114.696 89.9477 114.696C88.0997 114.696 86.6597 115.728 86.4437 117.24H84.4757C84.7157 114.744 86.9717 112.992 89.9957 112.992C93.1397 112.992 95.1557 114.864 95.1557 117.552V123.744C95.1557 124.152 95.3717 124.368 95.8037 124.368H96.5237V126H95.3957C94.0277 126 93.3077 125.376 93.3077 124.2V123.816C92.5637 125.28 91.1237 126.192 88.9157 126.192ZM89.2037 124.488C91.5797 124.488 93.2117 122.976 93.2117 120.864V119.208C92.6597 119.952 91.2437 120.096 89.6837 120.264C87.9317 120.456 86.1797 120.696 86.1797 122.328C86.1797 123.648 87.3797 124.488 89.2037 124.488ZM105.285 126.264C103.197 126.264 101.493 125.232 100.629 123.576L100.413 126H98.829V108H100.821V115.272C101.757 113.88 103.365 112.992 105.285 112.992C108.645 112.992 110.997 115.68 110.997 119.568C110.997 123.528 108.645 126.264 105.285 126.264ZM104.973 124.536C107.325 124.536 108.933 122.496 108.933 119.568C108.933 116.712 107.325 114.72 104.949 114.72C102.549 114.72 100.821 116.664 100.821 119.472C100.821 122.448 102.549 124.536 104.973 124.536ZM114.624 111.144C113.784 111.144 113.136 110.496 113.136 109.656C113.136 108.816 113.784 108.192 114.624 108.192C115.464 108.192 116.088 108.816 116.088 109.656C116.088 110.496 115.464 111.144 114.624 111.144ZM115.608 126H113.616V113.28H115.608V126ZM120.93 126H118.938V108H120.93V126ZM125.265 111.144C124.425 111.144 123.777 110.496 123.777 109.656C123.777 108.816 124.425 108.192 125.265 108.192C126.105 108.192 126.729 108.816 126.729 109.656C126.729 110.496 126.105 111.144 125.265 111.144ZM126.249 126H124.257V113.28H126.249V126ZM136.131 126H134.715C132.243 126 130.923 124.728 130.923 122.376V114.96H128.571V113.28H130.923V108.936H132.915V113.28H136.347V114.96H132.915V122.376C132.915 123.648 133.539 124.32 134.715 124.32H136.131V126ZM140.23 130.8H138.191V129.12H140.23C141.527 129.12 142.079 128.664 142.367 127.896L143.062 126H142.583L137.543 113.28H139.679L143.807 124.008L147.791 113.28H149.831L144.118 128.664C143.591 130.056 142.415 130.8 140.23 130.8ZM159.751 126H157.735V109.2H159.751V116.424H170.071V109.2H172.087V126H170.071V118.272H159.751V126ZM180.381 126.264C177.285 126.264 175.509 124.368 175.509 121.776V113.28H177.501V121.704C177.501 123.528 178.773 124.512 180.573 124.512C182.949 124.512 184.245 122.928 184.269 121.008V113.28H186.261V126H184.677L184.509 124.08C183.669 125.52 182.133 126.264 180.381 126.264ZM196.058 126.264C193.97 126.264 192.266 125.232 191.402 123.576L191.186 126H189.602V108H191.594V115.272C192.53 113.88 194.138 112.992 196.058 112.992C199.418 112.992 201.77 115.68 201.77 119.568C201.77 123.528 199.418 126.264 196.058 126.264ZM195.746 124.536C198.098 124.536 199.706 122.496 199.706 119.568C199.706 116.712 198.098 114.72 195.722 114.72C193.322 114.72 191.594 116.664 191.594 119.472C191.594 122.448 193.322 124.536 195.746 124.536Z" fill="white"/>
</svg>
